<svg xmlns="http://www.w3.org/2000/svg" width="640" height="340" viewBox="0 0 640 340" role="img" aria-labelledby="t"><title id="t">場面：Aさんが話します</title><rect width="640" height="340" rx="16" fill="#f8fafc"/><g stroke="#334155" stroke-width="3" stroke-linejoin="round"><circle cx="155" cy="151" r="27" fill="white"/><path d="M119 290v-91q36-27 72 0v91" fill="#c7d2fe"/><circle cx="518" cy="151" r="27" fill="white"/><path d="M482 290v-91q36-27 72 0v91" fill="#d1fae5"/><path d="M290 120l40-20 25 18 25-18 40 20 20 45-30 15-15-22v120h-80V158l-15 22-30-15z" fill="#bfdbfe"/><text x="355" y="225" font-size="28">¥ ?</text><path d="M176 160l72-45h-40v-38h72v55h-24" fill="white"/></g><g font-family="sans-serif" fill="#1e293b" text-anchor="middle"><text x="155" y="105" font-size="27">A</text><text x="518" y="105" font-size="27">B</text><text x="244" y="108" font-size="27">?</text></g></svg>